<?xml version="1.0" encoding="UTF-8" standalone="no"?>
<svg width="237px" height="321px" viewBox="0 0 237 321" version="1.1" xmlns="http://www.w3.org/2000/svg" xmlns:xlink="http://www.w3.org/1999/xlink">
    <!-- Generator: Sketch 46.2 (44496) - http://www.bohemiancoding.com/sketch -->
    <title>ninja-girl</title>
    <desc>Created with Sketch.</desc>
    <defs>
        <rect id="path-1" x="0" y="0" width="23" height="126"></rect>
        <polygon id="path-2" points="202.835715 59.3357556 211.627699 59.3357556 212.231707 134.335756 202.231707 134.335756"></polygon>
        <polygon id="path-3" points="194.716221 59.9513999 203.508205 59.9513999 204.112213 134.9514 194.112213 134.9514"></polygon>
        <polygon id="path-4" points="83.5500977 52 193.449902 52 201 66 76 66"></polygon>
        <rect id="path-5" x="93" y="75" width="94" height="29" rx="8"></rect>
    </defs>
    <g id="Page-1" stroke="none" stroke-width="1" fill="none" fill-rule="evenodd">
        <g id="ninja-girl" transform="translate(0.000000, -1.000000)">
            <g id="sword" transform="translate(46.334166, 135.727601) rotate(-36.000000) translate(-46.334166, -135.727601) translate(34.834166, 72.727601)">
                <g id="Rectangle-3">
                    <use fill-opacity="0.730327219" fill="#585858" fill-rule="evenodd" xlink:href="#path-1"></use>
                    <rect stroke="#000000" stroke-width="3" x="1.5" y="1.5" width="20" height="123"></rect>
                </g>
                <path d="M2.5,27.5 L21.5,27.5" id="Line" stroke="#000000" stroke-width="3" stroke-linecap="square"></path>
                <path d="M2.5,36.5 L21.5,36.5" id="Line" stroke="#000000" stroke-width="3" stroke-linecap="square"></path>
                <path d="M2.5,45.5 L21.5,45.5" id="Line" stroke="#000000" stroke-width="3" stroke-linecap="square"></path>
                <path d="M2.5,54.5 L21.5,54.5" id="Line" stroke="#000000" stroke-width="3" stroke-linecap="square"></path>
                <path d="M2.5,63.5 L21.5,63.5" id="Line" stroke="#000000" stroke-width="3" stroke-linecap="square"></path>
                <path d="M2.5,72.5 L21.5,72.5" id="Line" stroke="#000000" stroke-width="3" stroke-linecap="square"></path>
            </g>
            <g id="Rectangle" transform="translate(207.231707, 96.835756) rotate(-43.000000) translate(-207.231707, -96.835756) ">
                <use fill="#FB0202" fill-rule="evenodd" xlink:href="#path-2"></use>
                <path stroke="#000000" stroke-width="3" d="M204.323683,60.8357556 L203.743836,132.835756 L210.719578,132.835756 L210.139731,60.8357556 L204.323683,60.8357556 Z"></path>
            </g>
            <g id="Rectangle" transform="translate(199.112213, 97.451400) rotate(-32.000000) translate(-199.112213, -97.451400) ">
                <use fill="#FB0202" fill-rule="evenodd" xlink:href="#path-3"></use>
                <path stroke="#000000" stroke-width="3" d="M196.204189,61.4513999 L195.624342,133.4514 L202.600084,133.4514 L202.020237,61.4513999 L196.204189,61.4513999 Z"></path>
            </g>
            <ellipse id="Oval-3" stroke="#000000" stroke-width="3" fill="#585858" cx="139.5" cy="225.5" rx="91.5" ry="94.5"></ellipse>
            <circle id="Oval" stroke="#000000" stroke-width="3" fill="#585858" cx="139" cy="88" r="65"></circle>
            <g id="Rectangle">
                <use fill="#FB0202" fill-rule="evenodd" xlink:href="#path-4"></use>
                <path stroke="#000000" stroke-width="3" d="M84.4453835,53.5 L78.5131639,64.5 L198.486836,64.5 L192.554617,53.5 L84.4453835,53.5 Z"></path>
            </g>
            <g id="Rectangle-2">
                <use fill="#E2D2B8" fill-rule="evenodd" xlink:href="#path-5"></use>
                <rect stroke="#010101" stroke-width="3" x="94.5" y="76.5" width="91" height="26" rx="8"></rect>
            </g>
            <circle id="Oval-2" stroke="#000000" fill="#000000" cx="115" cy="90" r="5"></circle>
            <circle id="Oval-2" stroke="#000000" fill="#000000" cx="165" cy="90" r="5"></circle>
            <g id="Group" transform="translate(97.851159, 34.646895) rotate(-24.000000) translate(-97.851159, -34.646895) translate(50.851159, 17.646895)" stroke="#000000" stroke-width="3" fill="#FB0202">
                <path d="M46,17 L85.0409462,0 C91.0136487,7.36804225 94,13.0347089 94,17 C94,20.9652911 91.0136487,26.6319577 85.0409462,34 L46,17 Z" id="Triangle"></path>
                <path d="M0,17 L39.0409462,0 C45.0136487,7.36804225 48,13.0347089 48,17 C48,20.9652911 45.0136487,26.6319577 39.0409462,34 L0,17 Z" id="Triangle" transform="translate(24.000000, 17.000000) rotate(-180.000000) translate(-24.000000, -17.000000) "></path>
                <ellipse id="Oval-4" cx="46.5" cy="19" rx="11.5" ry="15"></ellipse>
            </g>
        </g>
    </g>
</svg>